<svg width="24" height="25" viewBox="0 0 24 25" fill="none" xmlns="http://www.w3.org/2000/svg">
<path d="M8.45599 14.994C8.53655 14.9331 8.62858 14.8891 8.72656 14.8646C8.82454 14.8401 8.92646 14.8357 9.02619 14.8516C9.12592 14.8675 9.22143 14.9033 9.30697 14.957C9.39251 15.0107 9.46633 15.0811 9.52399 15.164C9.69378 15.3508 9.88588 15.5161 10.096 15.656C10.6599 16.0303 11.3232 16.2268 12 16.22C12.855 16.22 13.487 15.937 13.904 15.658C14.1141 15.5181 14.3062 15.3528 14.476 15.166L14.497 15.14C14.617 14.9813 14.7952 14.8767 14.9923 14.8493C15.1894 14.822 15.3893 14.874 15.548 14.994C15.7067 15.114 15.8113 15.2922 15.8387 15.4893C15.866 15.6864 15.814 15.8863 15.694 16.045L15.667 16.079C15.654 16.095 15.637 16.117 15.615 16.142C15.571 16.192 15.51 16.261 15.431 16.34C15.2184 16.551 14.9857 16.7406 14.736 16.906C13.9255 17.444 12.9727 17.7274 12 17.72C11.0272 17.7274 10.0745 17.444 9.26399 16.906C9.01434 16.7406 8.78155 16.551 8.56899 16.34C8.48568 16.2573 8.40689 16.1702 8.33299 16.079C8.07399 15.747 8.10999 15.255 8.45599 14.995V14.994Z" fill="#8A8A8E"/>
<path fill-rule="evenodd" clip-rule="evenodd" d="M12 1.5C5.925 1.5 1 6.425 1 12.5C1 18.575 5.925 23.5 12 23.5C18.075 23.5 23 18.575 23 12.5C23 6.425 18.075 1.5 12 1.5ZM2.5 12.5C2.5 9.98044 3.50089 7.56408 5.28249 5.78249C7.06408 4.00089 9.48044 3 12 3C14.5196 3 16.9359 4.00089 18.7175 5.78249C20.4991 7.56408 21.5 9.98044 21.5 12.5C21.5 15.0196 20.4991 17.4359 18.7175 19.2175C16.9359 20.9991 14.5196 22 12 22C9.48044 22 7.06408 20.9991 5.28249 19.2175C3.50089 17.4359 2.5 15.0196 2.5 12.5Z" fill="#8A8A8E"/>
<path d="M9 11.25C9 11.5815 8.8683 11.8995 8.63388 12.1339C8.39946 12.3683 8.08152 12.5 7.75 12.5C7.41848 12.5 7.10054 12.3683 6.86612 12.1339C6.6317 11.8995 6.5 11.5815 6.5 11.25C6.5 10.9185 6.6317 10.6005 6.86612 10.3661C7.10054 10.1317 7.41848 10 7.75 10C8.08152 10 8.39946 10.1317 8.63388 10.3661C8.8683 10.6005 9 10.9185 9 11.25ZM16.25 12.5C16.5815 12.5 16.8995 12.3683 17.1339 12.1339C17.3683 11.8995 17.5 11.5815 17.5 11.25C17.5 10.9185 17.3683 10.6005 17.1339 10.3661C16.8995 10.1317 16.5815 10 16.25 10C15.9185 10 15.6005 10.1317 15.3661 10.3661C15.1317 10.6005 15 10.9185 15 11.25C15 11.5815 15.1317 11.8995 15.3661 12.1339C15.6005 12.3683 15.9185 12.5 16.25 12.5Z" fill="#8A8A8E"/>
</svg>
